<svg width="143" height="60" viewBox="0 0 143 60" fill="none" xmlns="http://www.w3.org/2000/svg">
<g clip-path="url(#clip0_0_1906)">
<path d="M66.0119 32.4353C64.1472 35.2584 63.2186 38.5969 63.3577 41.9774C63.3807 43.283 63.4826 44.5859 63.6629 45.8792C63.9253 47.6979 64.5625 49.4423 65.5342 51.0019C64.1468 49.9382 63.0372 48.5547 62.3001 46.9694C61.5629 45.3842 61.22 43.6442 61.3006 41.8978C61.2331 39.8372 61.7238 37.7967 62.7206 35.992C63.532 34.5708 64.6578 33.3542 66.0119 32.4353ZM80.292 41.4067V52.4353C78.4104 53.2843 76.3826 53.762 74.3198 53.842C73.0495 53.8938 71.7828 53.6717 70.6058 53.1909C69.4288 52.71 68.369 51.9816 67.4983 51.055C66.5933 50.0251 65.9312 48.8051 65.5607 47.485C65.1114 45.8515 64.8969 44.1624 64.9237 42.4684C64.9237 34.1605 68.4008 30.0066 75.355 30.0066C77.8908 30.0118 80.4061 30.461 82.787 31.3337C82.787 32.6609 82.787 33.7226 82.787 34.4392C82.787 35.1559 82.787 35.7664 82.787 36.7352H82.349C82.0451 35.2279 81.164 33.8991 79.8938 33.0325C78.4913 32.1183 76.8426 31.6551 75.1692 31.7053C69.5156 31.7053 66.6888 35.0984 66.6888 41.8845C66.6888 48.6706 69.0909 52.1123 73.8951 52.2096C74.6297 52.293 75.3736 52.2177 76.0765 51.9888C76.7794 51.7598 77.425 51.3825 77.9695 50.8825C78.2974 50.0382 78.4334 49.1316 78.3676 48.2282V45.1891C78.3676 43.0789 77.5979 41.858 76.0584 41.5394V41.1546L78.3013 41.2873L80.292 41.4067ZM81.8978 51.9177V41.4067C82.6012 41.4067 83.2249 41.4067 83.8222 41.2873C84.7644 41.1944 85.3749 41.1546 85.6669 41.1546V41.5394C84.3397 42.0836 83.6894 43.5036 83.6894 45.8128V51.347C83.4012 51.4181 83.1175 51.5067 82.8401 51.6124C82.6461 51.6568 82.4555 51.7145 82.2694 51.785C82.1499 51.8406 82.0255 51.885 81.8978 51.9177Z" fill="#000A62"/>
<path d="M90.5109 53.298V30.4977H99.1241C100.283 30.4715 101.441 30.5425 102.588 30.7101C103.592 30.855 104.552 31.2173 105.401 31.7718C106.185 32.3269 106.815 33.0711 107.233 33.935C107.696 34.909 107.932 35.9754 107.923 37.0538C107.964 38.8736 107.298 40.6385 106.065 41.9775C104.835 43.3135 102.623 43.9815 99.4293 43.9815H93.5899V53.2715L90.5109 53.298ZM93.5368 41.3537H99.4293C100.899 41.4872 102.368 41.1021 103.583 40.2655C104 39.8758 104.325 39.399 104.536 38.8691C104.747 38.3392 104.839 37.7692 104.804 37.1998C104.83 36.3264 104.579 35.4672 104.088 34.7446C103.631 34.0869 102.952 33.6157 102.176 33.4174C101.249 33.2432 100.306 33.172 99.3629 33.2051H93.5368V41.3537Z" fill="#000A62"/>
<path d="M122.216 51.2541C121.334 52.042 120.324 52.6747 119.23 53.1253C118.241 53.4915 117.193 53.6758 116.138 53.6694C114.627 53.768 113.135 53.2942 111.958 52.3423C111.484 51.9145 111.108 51.3894 110.856 50.8031C110.604 50.2167 110.482 49.5828 110.498 48.9448C110.49 48.1914 110.668 47.4478 111.015 46.7791C111.362 46.1104 111.868 45.5371 112.488 45.1094C113.109 44.7014 113.79 44.3925 114.506 44.1937C115.328 44.0041 116.161 43.8667 117.001 43.7822C118.691 43.6197 120.362 43.2953 121.991 42.8134C121.991 42.4286 121.991 42.1897 121.991 42.0835C122.037 41.6475 121.99 41.2066 121.852 40.7902C121.715 40.3737 121.491 39.9912 121.194 39.6681C120.285 38.9733 119.151 38.6379 118.009 38.7258C116.988 38.6492 115.968 38.8902 115.09 39.416C114.345 40.0556 113.844 40.9319 113.67 41.8977L110.936 41.5261C111.127 40.4981 111.549 39.527 112.17 38.686C112.821 37.9124 113.676 37.3375 114.638 37.0271C115.843 36.6191 117.109 36.4216 118.381 36.4432C119.547 36.4062 120.711 36.577 121.818 36.9475C122.567 37.1848 123.24 37.6151 123.769 38.195C124.204 38.7513 124.504 39.401 124.645 40.0928C124.762 40.9724 124.807 41.8602 124.778 42.7471V46.4763C124.735 48.1243 124.797 49.7732 124.963 51.4133C125.082 52.1124 125.32 52.7859 125.667 53.404H122.747C122.441 52.7254 122.262 51.9969 122.216 51.2541ZM121.991 45.0032C120.509 45.5276 118.973 45.8837 117.412 46.0649C116.578 46.1492 115.758 46.3364 114.97 46.6223C114.527 46.8051 114.148 47.1164 113.883 47.5161C113.619 47.9158 113.479 48.3857 113.484 48.8652C113.476 49.2189 113.549 49.5696 113.696 49.8914C113.843 50.2131 114.061 50.4974 114.333 50.7232C115.038 51.2742 115.922 51.5438 116.815 51.4797C117.817 51.4979 118.806 51.2506 119.681 50.763C120.492 50.332 121.143 49.653 121.539 48.8254C121.89 47.9354 122.044 46.9802 121.991 46.0251V45.0032Z" fill="#000A62"/>
<path d="M128.998 59.655L128.68 57.0008C129.202 57.1503 129.742 57.235 130.285 57.2529C130.8 57.2774 131.312 57.1676 131.772 56.9344C132.153 56.7347 132.473 56.4369 132.701 56.0718C133.035 55.399 133.319 54.7026 133.55 53.9882C133.55 53.8289 133.683 53.6033 133.802 53.298L127.525 36.7751H130.538L133.975 46.3438C134.413 47.5515 134.824 48.8256 135.169 50.166C135.484 48.8935 135.869 47.6396 136.324 46.4102L139.854 36.7751H142.654L136.377 53.5767C135.938 54.8576 135.415 56.1079 134.811 57.3193C134.417 58.1274 133.829 58.8252 133.099 59.3498C132.418 59.7962 131.617 60.0232 130.803 60.0001C130.187 59.984 129.577 59.8675 128.998 59.655Z" fill="#000A62"/>
<path d="M11.5726 5.94562C7.21962 12.1389 5.04311 19.9602 5.04311 29.4094C5.10931 32.5797 5.35745 35.7435 5.78631 38.8852C6.44446 43.354 8.01179 47.6405 10.3915 51.4798C3.46381 46.0474 -2.35103e-05 38.6552 -2.35103e-05 29.3033C-0.166862 24.2375 1.03916 19.2208 3.49036 14.7844C5.47586 11.2608 8.24033 8.23762 11.5726 5.94562ZM46.6622 28.016V55.1692C42.0275 57.2366 37.0416 58.4031 31.9708 58.6065C28.8464 58.7309 25.7317 58.1827 22.8376 56.9989C19.9435 55.8151 17.3374 54.0235 15.1957 51.7452C12.985 49.2059 11.3707 46.204 10.4711 42.9596C9.35761 38.9511 8.82575 34.8034 8.89182 30.6437C8.89182 10.2234 17.443 0.0088767 34.5454 2.90999e-05C40.7734 -0.0064291 46.9557 1.06212 52.8201 3.15862C52.8201 6.48975 52.8202 9.03785 52.9794 10.8295C53.0856 12.3557 53.1387 14.2402 53.1387 16.4433H52.0637C51.2969 12.7555 49.1269 9.50999 46.0119 7.3922C42.5681 5.12132 38.5098 3.96314 34.3862 4.07435C20.5043 4.07435 13.5589 12.4132 13.5501 29.0909C13.5501 46.0164 19.4603 54.4791 31.2807 54.4791C35.9964 54.4791 39.3364 53.3555 41.3006 51.1082C42.1002 49.0203 42.431 46.7821 42.2694 44.5521V37.2794C42.2694 32.1035 40.3716 29.1308 36.5892 28.3345V27.3789L42.1101 27.6974C43.915 27.8434 45.4412 27.9496 46.6622 28.016ZM50.6436 53.8421V28.016C52.3557 27.9496 53.935 27.8434 55.355 27.6974C57.6775 27.4851 59.2037 27.3789 59.9203 27.3789V28.3345C56.6733 29.6616 55.0453 33.1608 55.0365 38.8321V52.515C54.3272 52.6758 53.6308 52.8887 52.9529 53.152C52.4814 53.2697 52.0163 53.4114 51.5594 53.5767C51.1745 53.6563 50.8693 53.7625 50.6171 53.8421H50.6436Z" fill="#000A62"/>
</g>
<defs>
<clipPath id="clip0_0_1906">
<rect width="142.668" height="60" fill="white"/>
</clipPath>
</defs>
</svg>
